<?xml version="1.0" encoding="UTF-8"?> <svg xmlns="http://www.w3.org/2000/svg" width="267" height="125" viewBox="0 0 267 125" fill="none"><g clip-path="url(#clip0_4_43)"><path d="M0.940002 107.42V100.49H2.45V105.15L5.65 100.49H7.16V107.42H5.65V102.63L2.4 107.42H0.940002V107.42Z" fill="white"></path><path d="M9.12 107.42V100.49H10.63V103.21H13.83V100.49H15.34V107.42H13.83V104.54H10.63V107.42H9.12V107.42Z" fill="white"></path><path d="M18.56 107.42V101.81H16.57V100.49H22.07V101.81H20.07V107.42H18.56Z" fill="white"></path><path d="M22.88 103.95C22.88 101.94 24.35 100.32 26.41 100.32C28.5 100.32 29.84 101.91 29.84 104.09V104.45H24.47C24.59 105.5 25.38 106.36 26.69 106.36C27.37 106.36 28.17 106.09 28.66 105.6L29.35 106.59C28.66 107.25 27.64 107.59 26.53 107.59C24.44 107.59 22.88 106.14 22.88 103.95ZM26.41 101.56C25.11 101.56 24.52 102.55 24.45 103.4H28.37C28.34 102.57 27.78 101.56 26.41 101.56Z" fill="white"></path><path d="M36.6 101.81H32.84V107.42H31.33V100.49H36.6V101.81Z" fill="white"></path><path d="M39.35 106.46V110.06H37.84V100.5H39.35V101.45C39.87 100.76 40.67 100.33 41.58 100.33C43.38 100.33 44.66 101.68 44.66 103.96C44.66 106.24 43.38 107.6 41.58 107.6C40.71 107.59 39.92 107.21 39.35 106.46ZM43.1 103.95C43.1 102.62 42.34 101.66 41.14 101.66C40.43 101.66 39.69 102.08 39.35 102.59V105.33C39.68 105.83 40.43 106.26 41.14 106.26C42.33 106.26 43.1 105.3 43.1 103.95Z" fill="white"></path><path d="M46.16 107.42V100.49H47.67V105.15L50.87 100.49H52.38V107.42H50.87V102.63L47.62 107.42H46.16V107.42Z" fill="white"></path><path d="M55.85 106.46V110.06H54.34V100.5H55.85V101.45C56.37 100.76 57.17 100.33 58.08 100.33C59.88 100.33 61.16 101.68 61.16 103.96C61.16 106.24 59.88 107.6 58.08 107.6C57.21 107.59 56.41 107.21 55.85 106.46ZM59.6 103.95C59.6 102.62 58.84 101.66 57.64 101.66C56.93 101.66 56.19 102.08 55.85 102.59V105.33C56.18 105.83 56.93 106.26 57.64 106.26C58.83 106.26 59.6 105.3 59.6 103.95Z" fill="white"></path><path d="M62.23 103.95C62.23 101.97 63.6 100.32 65.8 100.32C68.03 100.32 69.39 101.97 69.39 103.95C69.39 105.94 68.04 107.59 65.8 107.59C63.6 107.59 62.23 105.94 62.23 103.95ZM67.82 103.95C67.82 102.73 67.1 101.66 65.8 101.66C64.52 101.66 63.8 102.74 63.8 103.95C63.8 105.18 64.52 106.26 65.8 106.26C67.1 106.26 67.82 105.18 67.82 103.95Z" fill="white"></path><path d="M70.91 107.42V100.49H75.07C76.39 100.49 77.13 101.28 77.13 102.27C77.13 103.1 76.6 103.66 75.96 103.85C76.71 104.02 77.27 104.72 77.27 105.54C77.27 106.62 76.52 107.42 75.17 107.42H70.91ZM75.59 102.53C75.59 102.1 75.3 101.81 74.81 101.81H72.42V103.22H74.81C75.3 103.22 75.59 102.92 75.59 102.53ZM75.72 105.33C75.72 104.91 75.42 104.54 74.86 104.54H72.43V106.1H74.86C75.39 106.1 75.72 105.81 75.72 105.33Z" fill="white"></path><path d="M83.39 107.42V106.67C82.87 107.26 82.07 107.59 81.14 107.59C80 107.59 78.72 106.83 78.72 105.3C78.72 103.71 80 103.05 81.14 103.05C82.08 103.05 82.88 103.35 83.39 103.94V102.91C83.39 102.11 82.73 101.62 81.76 101.62C80.98 101.62 80.31 101.91 79.7 102.49L79.08 101.44C79.89 100.68 80.89 100.32 82 100.32C83.54 100.32 84.89 100.97 84.89 102.83V107.42H83.39ZM83.39 105.84V104.79C83.04 104.32 82.4 104.07 81.73 104.07C80.88 104.07 80.25 104.56 80.25 105.32C80.25 106.07 80.88 106.55 81.73 106.55C82.4 106.56 83.05 106.32 83.39 105.84Z" fill="white"></path><path d="M86.86 107.42V100.49H88.37V103.21H91.57V100.49H93.08V107.42H91.57V104.54H88.37V107.42H86.86V107.42Z" fill="white"></path><path d="M95.04 107.42V100.49H96.55V103.21H99.75V100.49H101.26V107.42H99.75V104.54H96.55V107.42H95.04V107.42Z" fill="white"></path><path d="M102.79 103.95C102.79 101.97 104.16 100.32 106.36 100.32C108.59 100.32 109.95 101.97 109.95 103.95C109.95 105.94 108.6 107.59 106.36 107.59C104.15 107.59 102.79 105.94 102.79 103.95ZM108.37 103.95C108.37 102.73 107.65 101.66 106.35 101.66C105.07 101.66 104.35 102.74 104.35 103.95C104.35 105.18 105.07 106.26 106.35 106.26C107.65 106.26 108.37 105.18 108.37 103.95Z" fill="white"></path><path d="M116.74 101.81H112.98V107.42H111.47V100.49H116.74V101.81V101.81Z" fill="white"></path><path d="M117.54 103.95C117.54 101.97 118.91 100.32 121.11 100.32C123.34 100.32 124.7 101.97 124.7 103.95C124.7 105.94 123.35 107.59 121.11 107.59C118.91 107.59 117.54 105.94 117.54 103.95ZM123.13 103.95C123.13 102.73 122.41 101.66 121.11 101.66C119.83 101.66 119.11 102.74 119.11 103.95C119.11 105.18 119.83 106.26 121.11 106.26C122.41 106.26 123.13 105.18 123.13 103.95Z" fill="white"></path><path d="M5.65 121.54V115.93H2.45V121.54H0.940002V114.61H7.16V121.54H5.65V121.54Z" fill="white"></path><path d="M8.40002 120.47C8.99002 120.47 9.32002 119.8 9.55002 117.98L9.97003 114.61H15.34V121.54H13.83V115.93H11.31L11.07 118.15C10.8 120.66 9.93002 121.71 8.41002 121.71V120.47H8.40002Z" fill="white"></path><path d="M21.55 121.54V120.79C21.03 121.38 20.23 121.71 19.3 121.71C18.16 121.71 16.88 120.95 16.88 119.42C16.88 117.83 18.16 117.17 19.3 117.17C20.24 117.17 21.04 117.47 21.55 118.06V117.03C21.55 116.23 20.89 115.74 19.92 115.74C19.14 115.74 18.47 116.03 17.86 116.61L17.24 115.56C18.05 114.8 19.05 114.44 20.16 114.44C21.7 114.44 23.05 115.09 23.05 116.95V121.54H21.55ZM21.55 119.96V118.91C21.2 118.44 20.56 118.19 19.89 118.19C19.04 118.19 18.41 118.68 18.41 119.44C18.41 120.19 19.04 120.67 19.89 120.67C20.55 120.68 21.2 120.43 21.55 119.96Z" fill="white"></path><path d="M25.01 121.54V114.61H26.52V117.33H29.72V114.61H31.23V121.54H29.72V118.66H26.52V121.54H25.01V121.54Z" fill="white"></path><path d="M33.19 121.54V114.61H34.7V119.27L37.9 114.61H39.41V121.54H37.9V116.75L34.65 121.54H33.19V121.54Z" fill="white"></path><path d="M42.88 120.58V124.18H41.37V114.62H42.88V115.57C43.4 114.88 44.2 114.45 45.11 114.45C46.91 114.45 48.19 115.8 48.19 118.08C48.19 120.36 46.91 121.72 45.11 121.72C44.23 121.71 43.44 121.32 42.88 120.58ZM46.62 118.07C46.62 116.74 45.86 115.78 44.66 115.78C43.95 115.78 43.21 116.2 42.87 116.71V119.45C43.2 119.95 43.95 120.38 44.66 120.38C45.86 120.37 46.62 119.41 46.62 118.07Z" fill="white"></path><path d="M49.26 118.07C49.26 116.09 50.63 114.44 52.83 114.44C55.06 114.44 56.42 116.09 56.42 118.07C56.42 120.06 55.07 121.71 52.83 121.71C50.63 121.71 49.26 120.06 49.26 118.07ZM54.85 118.07C54.85 116.85 54.13 115.78 52.83 115.78C51.55 115.78 50.83 116.86 50.83 118.07C50.83 119.3 51.55 120.38 52.83 120.38C54.13 120.37 54.85 119.3 54.85 118.07Z" fill="white"></path><path d="M57.94 121.54V114.61H62.1C63.42 114.61 64.16 115.4 64.16 116.39C64.16 117.22 63.63 117.78 62.99 117.97C63.74 118.14 64.3 118.84 64.3 119.66C64.3 120.74 63.55 121.54 62.2 121.54H57.94ZM62.62 116.65C62.62 116.22 62.33 115.93 61.84 115.93H59.45V117.34H61.84C62.33 117.33 62.62 117.03 62.62 116.65ZM62.75 119.44C62.75 119.02 62.45 118.65 61.89 118.65H59.46V120.21H61.89C62.42 120.22 62.75 119.93 62.75 119.44Z" fill="white"></path><path d="M70.42 121.54V120.79C69.9 121.38 69.1 121.71 68.17 121.71C67.03 121.71 65.75 120.95 65.75 119.42C65.75 117.83 67.03 117.17 68.17 117.17C69.11 117.17 69.91 117.47 70.42 118.06V117.03C70.42 116.23 69.76 115.74 68.79 115.74C68.01 115.74 67.34 116.03 66.73 116.61L66.11 115.56C66.92 114.8 67.92 114.44 69.03 114.44C70.57 114.44 71.92 115.09 71.92 116.95V121.54H70.42ZM70.42 119.96V118.91C70.07 118.44 69.43 118.19 68.76 118.19C67.91 118.19 67.28 118.68 67.28 119.44C67.28 120.19 67.91 120.67 68.76 120.67C69.43 120.68 70.08 120.43 70.42 119.96Z" fill="white"></path><path d="M73.89 121.54V114.61H75.4V117.33H78.6V114.61H80.11V121.54H78.6V118.66H75.4V121.54H73.89V121.54Z" fill="white"></path><path d="M82.07 121.54V114.61H83.58V119.27L86.78 114.61H88.29V121.54H86.78V116.75L83.53 121.54H82.07V121.54Z" fill="white"></path><path d="M90 121.54L91.71 118.96C90.8 118.76 90.08 118.01 90.08 116.82C90.08 115.63 90.89 114.61 92.38 114.61H96.35V121.54H94.84V119.03H93.24L91.71 121.54H90V121.54ZM94.85 117.71V115.93H92.57C91.99 115.93 91.62 116.3 91.62 116.82C91.62 117.34 91.97 117.71 92.57 117.71H94.85Z" fill="white"></path><path d="M0.00465113 69.6104L0.00463867 91.9104L106.305 91.9105L106.305 69.6105L0.00465113 69.6104Z" fill="white"></path><path d="M12.99 86.0098V78.1098H8.40002V86.0098H6.33002V76.2898H15.08V86.0098H12.99Z" fill="black"></path><path d="M16.69 84.1798C17.67 84.1798 18.54 83.5498 18.88 79.1998L19.11 76.2798H26.02V85.9998H23.94V78.0998H20.85L20.75 79.4598C20.27 85.4498 18.68 86.1798 16.7 86.1798V84.1798H16.69Z" fill="black"></path><path d="M35.03 86.0098L34.42 84.3298H30.08L29.47 86.0098H27.2L30.96 76.2898H33.55L37.3 86.0098H35.03ZM32.25 78.0798L30.63 82.5398H33.85L32.25 78.0798Z" fill="black"></path><path d="M39.8 86.0098V78.1098H36.96V76.2898H44.71V78.1098H41.88V86.0098H39.8Z" fill="black"></path><path d="M51.88 85.0298V86.0098H49.81V85.0298C46.87 84.7798 45.12 83.3998 45.12 81.1498C45.12 78.9198 46.87 77.5198 49.81 77.2698V76.2798H51.88V77.2698C54.82 77.5198 56.57 78.8998 56.57 81.1498C56.57 83.3998 54.82 84.7798 51.88 85.0298ZM49.81 83.1798V79.1298C48.13 79.3198 47.24 80.0498 47.24 81.1598C47.24 82.2698 48.13 82.9898 49.81 83.1798ZM51.88 83.1798C53.56 82.9898 54.46 82.2598 54.46 81.1498C54.46 80.0398 53.56 79.3098 51.88 79.1198V83.1798Z" fill="black"></path><path d="M62.94 76.1199C65.88 76.1199 68.03 78.2199 68.03 81.1499C68.03 84.0799 65.89 86.1799 62.94 86.1799C60.01 86.1799 57.87 84.0799 57.87 81.1499C57.87 78.2199 60.01 76.1199 62.94 76.1199ZM62.94 77.9599C61.15 77.9599 60 79.3299 60 81.1499C60 82.9599 61.15 84.3399 62.94 84.3399C64.73 84.3399 65.9 82.9599 65.9 81.1499C65.9 79.3299 64.73 77.9599 62.94 77.9599Z" fill="black"></path><path d="M69.78 86.0098V76.2898H74.33C76.44 76.2898 77.59 77.7198 77.59 79.4198C77.59 81.1098 76.42 82.5198 74.33 82.5198H71.85V85.9998H69.78V86.0098ZM74.05 78.0598H71.85V80.7398H74.05C74.87 80.7398 75.48 80.2198 75.48 79.3998C75.48 78.5998 74.86 78.0598 74.05 78.0598Z" fill="black"></path><path d="M87.62 86.0098V79.0098L84.88 86.0098H83.98L81.24 79.0098V86.0098H79.17V76.2898H82.07L84.43 82.3498L86.79 76.2898H89.71V86.0098H87.62Z" fill="black"></path><path d="M98.72 86.0098L98.11 84.3298H93.77L93.16 86.0098H90.89L94.65 76.2898H97.24L100.99 86.0098H98.72ZM95.94 78.0798L94.32 82.5398H97.54L95.94 78.0798Z" fill="black"></path><path d="M34.72 0.929932H23.59V60.5599H34.72V0.929932Z" fill="white"></path><path d="M85.28 22.96C83.62 20.02 81.34 17.84 78.45 16.41C75.56 14.98 72.27 14.27 68.61 14.27C64.6 14.27 61.06 15.06 57.99 16.62C55.92 17.68 54.19 19.04 52.79 20.71V14.78H42.56V60.5H53.3V37.38C53.3 34.3 53.83 31.74 54.89 29.72C55.95 27.69 57.45 26.17 59.4 25.14C61.35 24.11 63.58 23.6 66.11 23.6C69.55 23.6 72.23 24.6 74.15 26.6C76.07 28.6 77.03 31.62 77.03 35.67V60.5H87.78V34.3C87.77 29.68 86.94 25.9 85.28 22.96Z" fill="white"></path><path d="M150.63 5.85992C147.01 4.22992 142.67 3.41992 137.61 3.41992H114.09V60.3499H124.71V43.9099H137.61C142.67 43.9099 147.01 43.0999 150.63 41.4699C154.25 39.8399 157.04 37.5099 159 34.4799C160.96 31.4399 161.94 27.8399 161.94 23.6599C161.94 19.4899 160.96 15.8799 159 12.8399C157.04 9.80992 154.25 7.47992 150.63 5.85992ZM147.69 31.9999C145.32 33.9799 141.8 34.9699 137.12 34.9699H124.7V12.3599H137.11C141.79 12.3599 145.32 13.3399 147.68 15.2899C150.05 17.2399 151.23 20.0299 151.23 23.6699C151.24 27.2399 150.05 30.0199 147.69 31.9999Z" fill="white"></path><path d="M175.25 0H165.04V60.34H175.25V0Z" fill="white"></path><path d="M212.6 20.9399C209.14 17.9299 204.26 16.4299 197.94 16.4299C194.46 16.4299 191.09 16.8799 187.86 17.7699C184.62 18.6599 181.83 20.0099 179.49 21.7999L183.49 29.1999C185.12 27.8499 187.12 26.7899 189.49 26.0299C191.86 25.2699 194.27 24.8899 196.72 24.8899C200.37 24.8899 203.09 25.7199 204.89 27.3699C206.69 29.0199 207.59 31.3399 207.59 34.3199V34.9699H196.32C191.91 34.9699 188.37 35.5399 185.7 36.6799C183.03 37.8199 181.11 39.3599 179.94 41.3199C178.77 43.2699 178.18 45.4699 178.18 47.9099C178.18 50.3999 178.85 52.6399 180.18 54.6199C181.51 56.5999 183.41 58.1399 185.86 59.2599C188.31 60.3699 191.17 60.9299 194.43 60.9299C198.29 60.9299 201.49 60.2299 204.02 58.8199C205.76 57.8499 207.14 56.6099 208.14 55.0999V60.3599H217.78V34.8899C217.79 28.5999 216.06 23.9499 212.6 20.9399ZM203.29 51.7999C201.3 52.9399 199.06 53.5099 196.55 53.5099C193.94 53.5099 191.9 52.9699 190.43 51.8799C188.96 50.7999 188.23 49.3299 188.23 47.4899C188.23 45.8599 188.83 44.4899 190.03 43.3799C191.23 42.2699 193.57 41.7099 197.05 41.7099H207.58V46.7499C206.71 48.9799 205.28 50.6599 203.29 51.7999Z" fill="white"></path><path d="M264.09 24.6799C262.51 21.8899 260.35 19.8099 257.6 18.4599C254.85 17.1099 251.73 16.4299 248.25 16.4299C244.44 16.4299 241.08 17.1799 238.17 18.6699C236.21 19.6699 234.56 20.9699 233.23 22.5499V16.9199H223.51V60.3499H233.72V38.3799C233.72 35.4499 234.22 33.0299 235.23 31.0999C236.24 29.1799 237.67 27.7299 239.52 26.7499C241.37 25.7699 243.49 25.2899 245.89 25.2899C249.16 25.2899 251.7 26.2399 253.53 28.1399C255.35 30.0399 256.27 32.9099 256.27 36.7599V60.3399H266.48V35.4599C266.46 31.0699 265.67 27.4699 264.09 24.6799Z" fill="white"></path><path d="M95.04 60.5V48.71H106.82V60.5H95.04Z" fill="#9000FF"></path><path d="M23.57 0.929932H0V60.5599H23.57V0.929932Z" fill="#9000FF"></path></g><defs><clipPath id="clip0_4_43"><rect width="266.46" height="124.17" fill="white"></rect></clipPath></defs></svg> 